#!OML:ASF F:\VICON\USERDATA\INSTALL\rory3\rory3.ASF
:FULLY-SPECIFIED
:DEGREES
159
root 0.0778691 17.9709 -0.884367 1.46241 -8.8907 1.30107
lowerback -1.05425 -0.667066 -3.70336
upperback -0.679602 -0.860147 1.78781
thorax -0.024891 -0.418176 3.90902
lowerneck -20.2617 0.155565 -8.14304
upperneck 34.0651 3.33859 -0.0208683
head 15.2413 0.295342 2.01526
rclavicle -1.0944e-014 9.54166e-015
rhumerus -15.3906 51.0747 -83.3665
rradius 107.769
rwrist 29.4516
rhand -22.4195 6.04883
rfingers 7.12502
rthumb 4.00369 -23.8933
lclavicle -1.0944e-014 9.54166e-015
lhumerus -37.9133 -30.4332 106.968
lradius 84.2935
lwrist 12.2456
lhand -25.5266 22.4175
lfingers 7.12502
lthumb 1.00298 52.3949
rfemur -7.08607 7.4906 14.6534
rtibia 24.9196
rfoot -16.3519 -3.33992
rtoes 3.86825
lfemur 0.536912 -2.27737 -22.0687
ltibia 13.0779
lfoot -10.8254 4.88228
ltoes -11.0548
160
root 0.081865 17.974 -0.881524 1.52695 -8.94755 1.26858
lowerback -1.5338 -0.636881 -3.33812
upperback -0.391873 -0.806649 1.58202
thorax 0.526741 -0.408152 3.48317
lowerneck -20.4038 0.136977 -8.02876
upperneck 33.8144 3.222 0.11249
head 15.1559 0.291525 2.02836
rclavicle 3.91668e-015 1.90833e-014
rhumerus -14.7568 51.2104 -83.015
rradius 108.022
rwrist 29.5087
rhand -22.1261 6.75586
rfingers 7.12502
rthumb 4.28703 -23.1807
lclavicle 3.91668e-015 1.90833e-014
lhumerus -37.5784 -30.9235 106.503
lradius 84.2784
lwrist 12.6079
lhand -24.9494 21.6888
lfingers 7.12502
lthumb 1.56045 51.6628
rfemur -7.14886 7.51997 14.6575
rtibia 24.9043
rfoot -16.3291 -3.34
rtoes 4.08631
lfemur 0.506014 -2.30245 -22.0645
ltibia 13.1077
lfoot -10.8664 4.95196
ltoes -11.0706
161
root 0.0858966 17.974 -0.881521 1.54245 -8.96802 1.27767
lowerback -1.74601 -0.620286 -3.18232
upperback -0.198914 -0.779153 1.4839
thorax 0.838093 -0.40292 3.29116
lowerneck -20.5998 0.113254 -7.97496
upperneck 33.651 3.15623 0.179973
head 15.1246 0.286615 2.03539
rclavicle -5.5287e-016 4.37326e-015
rhumerus -14.1908 51.3682 -82.5223
rradius 108.291
rwrist 29.4361
rhand -22.4868 8.28001
rfingers 7.12502
rthumb 3.93869 -21.6633
lclavicle -5.5287e-016 4.37326e-015
lhumerus -37.2984 -31.1257 106.208
lradius 84.3064
lwrist 12.9992
lhand -24.1739 20.7866
lfingers 7.12502
lthumb 2.30937 50.7538
rfemur -7.17125 7.49296 14.6243
rtibia 24.8956
rfoot -16.2985 -3.34323
rtoes 3.83544
lfemur 0.495257 -2.2894 -22.0945
ltibia 13.1341
lfoot -10.8669 4.97287
ltoes -11.309
162
root 0.0862321 17.9724 -0.886313 1.49658 -9.00266 1.26331
lowerback -1.64043 -0.613633 -3.20372
upperback -0.146976 -0.772954 1.52087
thorax 0.832527 -0.400675 3.34234
lowerneck -20.7118 0.112296 -7.97143
upperneck 33.5992 3.17002 0.16387
head 15.1257 0.291864 2.03116
rclavicle 2.08662e-014 -9.93923e-015
rhumerus -13.9319 51.6028 -82.0986
rradius 108.597
rwrist 29.4749
rhand -23.0028 10.112
rfingers 7.12502
rthumb 3.44041 -19.8399
lclavicle 2.08662e-014 -9.93923e-015
lhumerus -37.298 -31.0682 106.217
lradius 84.4565
lwrist 13.2053
lhand -23.5341 20.0027
lfingers 7.12502
lthumb 2.92729 49.9624
rfemur -7.14066 7.5988 14.6552
rtibia 24.9039
rfoot -16.338 -3.37984
rtoes 4.19529
lfemur 0.524182 -2.21026 -22.0674
ltibia 13.1287
lfoot -10.8471 4.92466
ltoes -11.3036
163
root 0.0877724 17.9712 -0.890522 1.43862 -9.0171 1.27807
lowerback -1.40438 -0.618493 -3.29943
upperback -0.204383 -0.785657 1.60399
thorax 0.644719 -0.402955 3.48469
lowerneck -20.6956 0.12904 -8.00232
upperneck 33.5896 3.23158 0.0914719
head 15.1171 0.303672 2.0169
rclavicle 1.88348e-014 -4.77083e-015
rhumerus -13.9742 51.876 -81.8062
rradius 108.963
rwrist 29.575
rhand -23.3605 11.8016
rfingers 7.12502
rthumb 3.09493 -18.1557
lclavicle 1.88348e-014 -4.77083e-015
lhumerus -37.469 -30.9531 106.393
lradius 84.5842
lwrist 13.1741
lhand -22.8408 19.3978
lfingers 7.12502
lthumb 3.59682 49.3472
rfemur -7.1109 7.66045 14.6435
rtibia 24.9341
rfoot -16.3892 -3.36193
rtoes 4.47983
lfemur 0.588739 -2.16282 -22.0823
ltibia 13.0867
lfoot -10.8315 4.89431
ltoes -11.3598
164
root 0.0924805 17.9707 -0.891789 1.39646 -9.04322 1.38761
lowerback -1.14586 -0.608381 -3.46271
upperback -0.327595 -0.778711 1.65068
thorax 0.375429 -0.392331 3.62879
lowerneck -20.6778 0.136737 -8.04234
upperneck 33.6433 3.2612 0.0855109
head 15.1369 0.307819 2.02732
rclavicle 8.96395e-015 1.59028e-015
rhumerus -14.1853 52.0032 -81.631
rradius 109.26
rwrist 29.9224
rhand -23.8804 13.8277
rfingers 7.12502
rthumb 2.59284 -16.1363
lclavicle 8.96395e-015 1.59028e-015
lhumerus -37.7509 -30.8172 106.585
lradius 84.7491
lwrist 12.9873
lhand -21.8059 18.8225
lfingers 7.12502
lthumb 4.5962 48.7527
rfemur -7.10841 7.59506 14.5003
rtibia 24.9491
rfoot -16.3258 -3.29102
rtoes 4.29924
lfemur 0.623944 -2.22054 -22.23
ltibia 13.0759
lfoot -10.8127 4.96283
ltoes -11.4117
165
root 0.0959189 17.971 -0.894712 1.35708 -9.05445 1.4386
lowerback -1.0136 -0.602028 -3.517
upperback -0.329432 -0.773883 1.67454
thorax 0.29998 -0.388351 3.68564
lowerneck -20.7477 0.127832 -8.08511
upperneck 33.6176 3.26722 0.0973005
head 15.1397 0.30712 2.04118
rclavicle -1.57785e-014 -1.59028e-014
rhumerus -14.0556 52.006 -81.27
rradius 109.585
rwrist 30.2497
rhand -23.9787 15.7441
rfingers 7.12502
rthumb 2.49793 -14.221
lclavicle -1.57785e-014 -1.59028e-014
lhumerus -37.7627 -30.6026 106.532
lradius 84.9803
lwrist 13.1689
lhand -20.3641 18.3435
lfingers 7.12502
lthumb 5.98827 48.2389
rfemur -7.08947 7.6034 14.4371
rtibia 24.9345
rfoot -16.3025 -3.3048
rtoes 4.14771
lfemur 0.642999 -2.18807 -22.298
ltibia 13.087
lfoot -10.8101 4.96243
ltoes -11.6677
166
root 0.0980495 17.9723 -0.901639 1.36576 -9.0777 1.33926
lowerback -0.955287 -0.579052 -3.39129
upperback -0.266157 -0.746012 1.70171
thorax 0.328539 -0.376017 3.64332
lowerneck -20.8628 0.0950969 -8.11941
upperneck 33.5448 3.23409 0.118942
head 15.1325 0.294253 2.05034
rclavicle -1.91827e-014 -3.18055e-015
rhumerus -13.8073 51.8531 -80.8669
rradius 110.001
rwrist 30.5971
rhand -23.5981 17.1824
rfingers 7.12502
rthumb 2.86546 -12.7781
lclavicle -1.91827e-014 -3.18055e-015
lhumerus -37.58 -30.4942 106.32
lradius 85.2531
lwrist 13.873
lhand -18.9735 18.3073
lfingers 7.12502
lthumb 7.33073 48.1603
rfemur -7.09926 7.73168 14.5523
rtibia 24.9097
rfoot -16.3253 -3.38157
rtoes 4.38199
lfemur 0.614716 -2.10353 -22.1769
ltibia 13.0882
lfoot -10.7708 4.8978
ltoes -11.4829
167
root 0.0994697 17.9732 -0.906701 1.37328 -9.11806 1.26032
lowerback -0.873414 -0.545329 -3.31788
upperback -0.250352 -0.704162 1.73838
thorax 0.294742 -0.354623 3.64106
lowerneck -20.9471 0.0589123 -8.17911
upperneck 33.5173 3.19541 0.164624
head 15.1389 0.277543 2.07326
rclavicle -5.15163e-014 1.59028e-015
rhumerus -13.7214 51.594 -80.6097
rradius 110.471
rwrist 30.958
rhand -22.6 17.9836
rfingers 7.12502
rthumb 3.82938 -11.9617
lclavicle -5.15163e-014 1.59028e-015
lhumerus -37.5159 -30.5072 106.245
lradius 85.415
lwrist 14.095
lhand -18.1115 18.2192
lfingers 7.12502
lthumb 8.16272 48.0416
rfemur -7.10012 7.80414 14.6484
rtibia 24.8595
rfoot -16.284 -3.46005
rtoes 4.24967
lfemur 0.577463 -2.03651 -22.0824
ltibia 13.1382
lfoot -10.7803 4.88431
ltoes -11.2134
